<svg xmlns="http://www.w3.org/2000/svg" viewBox="0 0 512 512">
  <defs>
    <linearGradient id="bg" x1="0%" y1="0%" x2="100%" y2="100%">
      <stop offset="0%" stop-color="#4f46e5"/>
      <stop offset="100%" stop-color="#7c3aed"/>
    </linearGradient>
  </defs>
  <rect width="512" height="512" rx="132" fill="url(#bg)"/>
  <circle cx="256" cy="256" r="152" fill="#ffffff" fill-opacity="0.14"/>
  <path d="M188 180c0-34 26-61 58-61h18c32 0 58 27 58 61v64c0 16-8 31-21 40l-25 18v68h-64v-68l-25-18c-13-9-21-24-21-40v-64Z" fill="#ffffff"/>
  <path d="M218 214h76" stroke="#4f46e5" stroke-width="18" stroke-linecap="round"/>
  <path d="M218 248h50" stroke="#4f46e5" stroke-width="18" stroke-linecap="round"/>
  <path d="M248 116v-32" stroke="#fbbf24" stroke-width="20" stroke-linecap="round"/>
  <path d="M210 132l-22-22" stroke="#fbbf24" stroke-width="20" stroke-linecap="round"/>
  <path d="M286 132l22-22" stroke="#fbbf24" stroke-width="20" stroke-linecap="round"/>
  <path d="M336 214c22 14 35 39 35 67 0 46-37 83-83 83s-83-37-83-83c0-28 13-53 35-67" stroke="#fbbf24" stroke-width="18" stroke-linecap="round" fill="none"/>
</svg>
